<?xml version="1.0" encoding="UTF-8" standalone="no"?>
<!-- Created with Inkscape (http://www.inkscape.org/) -->

<svg
   xmlns:dc="http://purl.org/dc/elements/1.1/"
   xmlns:cc="http://creativecommons.org/ns#"
   xmlns:rdf="http://www.w3.org/1999/02/22-rdf-syntax-ns#"
   xmlns:svg="http://www.w3.org/2000/svg"
   xmlns="http://www.w3.org/2000/svg"
   xmlns:sodipodi="http://sodipodi.sourceforge.net/DTD/sodipodi-0.dtd"
   xmlns:inkscape="http://www.inkscape.org/namespaces/inkscape"
   id="svg2"
   version="1.1"
   inkscape:version="0.91 r13725"
   xml:space="preserve"
   width="622.5"
   height="308.75"
   viewBox="0 0 622.5 308.75"
   sodipodi:docname="champ_E_plaques.svg"><metadata
     id="metadata8"><rdf:RDF><cc:Work
         rdf:about=""><dc:format>image/svg+xml</dc:format><dc:type
           rdf:resource="http://purl.org/dc/dcmitype/StillImage" /><dc:title /></cc:Work></rdf:RDF></metadata><defs
     id="defs6" /><sodipodi:namedview
     pagecolor="#ffffff"
     bordercolor="#666666"
     borderopacity="1"
     objecttolerance="10"
     gridtolerance="10"
     guidetolerance="10"
     inkscape:pageopacity="0"
     inkscape:pageshadow="2"
     inkscape:window-width="1140"
     inkscape:window-height="1054"
     id="namedview4"
     showgrid="false"
     inkscape:zoom="2.2746987"
     inkscape:cx="241.64637"
     inkscape:cy="102.99018"
     inkscape:window-x="6"
     inkscape:window-y="20"
     inkscape:window-maximized="0"
     inkscape:current-layer="g10" /><g
     id="g10"
     inkscape:groupmode="layer"
     inkscape:label="Plaque"
     transform="matrix(1.25,0,0,-1.25,0,308.75)"
     style="display:inline"><path
       inkscape:connector-curvature="0"
       id="path14"
       style="fill:#000000;fill-opacity:1;fill-rule:nonzero;stroke:none"
       d="m 102.789,144.287 292.102,0 0,10 -292.102,0 0,-10 z" /><path
       inkscape:connector-curvature="0"
       id="path16"
       style="fill:#000000;fill-opacity:1;fill-rule:nonzero;stroke:none"
       d="m 102.789,90.2871 292.102,0 0,10 -292.102,0 0,-10 z" /><path
       inkscape:connector-curvature="0"
       id="path20"
       style="fill:#000000;fill-opacity:1;fill-rule:nonzero;stroke:none"
       d="m 269.23746,164.2545 c 0,0.2786 0,0.59663 -0.25951,0.59663 -0.23789,0 -0.25825,-0.23789 -0.27733,-0.57628 -0.15902,-1.6894 -1.19327,-2.66385 -2.26695,-2.66385 -1.15256,0 -1.78863,1.11312 -2.38526,3.18034 2.94246,1.2925 5.04912,4.43341 5.04912,8.13024 0,4.98933 -3.75663,8.96476 -8.2689,8.96476 -4.43214,0 -8.22947,-3.91564 -8.22947,-8.96476 0,-4.96897 3.73754,-8.84518 8.24982,-8.84518 0.77473,0 1.64996,0.13866 2.36491,0.37783 0.37782,-2.78344 0.71621,-5.46638 3.02132,-5.46638 2.54428,0 3.00225,3.81641 3.00225,5.26665 z m -2.62442,8.52842 c 0,-1.92856 -0.29768,-5.42695 -2.9221,-7.35551 -0.55593,1.11312 -1.35101,2.10794 -2.80252,2.10794 -1.27214,0 -2.04688,-1.09404 -2.04688,-2.14737 0,-0.67551 0.33712,-1.17292 0.35748,-1.21235 -1.35229,0.4974 -4.1141,2.3649 -4.1141,8.28925 0,6.67873 3.45767,8.76504 5.74371,8.76504 2.40561,0 5.78441,-2.12702 5.78441,-8.447 z m -3.57725,-7.65319 c -0.8358,-0.33839 -1.63089,-0.41726 -2.18681,-0.41726 -1.25306,0 -1.45151,0.85488 -1.45151,1.11312 0,0.55593 0.51649,1.15256 1.49095,1.15256 1.33193,0 1.88785,-0.77473 2.14737,-1.84842 z" /><path
       inkscape:connector-curvature="0"
       id="path24"
       style="fill:#000000;fill-opacity:1;fill-rule:nonzero;stroke:none"
       d="m 264.77989,67.220892 c 0,0.278853 0,0.596888 -0.25825,0.596888 -0.23916,0 -0.25951,-0.239544 -0.27859,-0.577933 -0.15902,-1.689145 -1.19327,-2.662586 -2.26568,-2.662586 -1.15383,0 -1.7899,1.113121 -2.38654,3.180347 2.94246,1.291475 5.04912,4.432131 5.04912,8.12922 0,4.989201 -3.75662,8.964634 -8.2689,8.964634 -4.43213,0 -8.22946,-3.91577 -8.22946,-8.964634 0,-4.969228 3.73754,-8.845307 8.24982,-8.845307 0.77473,0 1.64996,0.14019 2.3649,0.377698 0.37783,-2.781786 0.71622,-5.466253 3.02133,-5.466253 2.54428,0 3.00225,3.816416 3.00225,5.267926 z m -2.62442,8.527273 c 0,-1.928562 -0.29768,-5.426943 -2.92211,-7.354488 -0.55592,1.113121 -1.35101,2.106916 -2.80252,2.106916 -1.27214,0 -2.04687,-1.09264 -2.04687,-2.147624 0,-0.675379 0.33712,-1.171258 0.35747,-1.212094 -1.35101,0.497406 -4.11409,2.365923 -4.11409,8.289255 0,6.678728 3.45767,8.766435 5.7437,8.766435 2.40562,0 5.78442,-2.127397 5.78442,-8.4484 z m -3.57726,-7.653186 c -0.83579,-0.337371 -1.63088,-0.417389 -2.1868,-0.417389 -1.25306,0 -1.45151,0.85475 -1.45151,1.113122 0,0.557069 0.51648,1.15243 1.49094,1.15243 1.33193,0 1.88786,-0.774732 2.14737,-1.848163 z" /><path
       inkscape:connector-curvature="0"
       id="path18"
       style="display:inline;fill:#000000;fill-opacity:1;fill-rule:nonzero;stroke:none"
       d="m 249.8119,171.07316 c 0,0.51649 -0.47705,0.51649 -0.81544,0.51649 l -6.93697,0 0,7.05655 c 0,0.33839 0,0.83453 -0.49613,0.83453 -0.47705,0 -0.47705,-0.49614 -0.47705,-0.83453 l 0,-7.05655 -6.95733,0 c -0.33839,0 -0.81544,0 -0.81544,-0.51649 0,-0.4974 0.47705,-0.4974 0.81544,-0.4974 l 6.95733,0 0,-7.39367 c 0,-0.35875 0,-0.87523 0.47705,-0.87523 0.49613,0 0.49613,0.51648 0.49613,0.87523 l 0,7.39367 6.93697,0 c 0.33839,0 0.81544,0 0.81544,0.4974 z" /><path
       inkscape:connector-curvature="0"
       id="path22"
       style="display:inline;fill:#000000;fill-opacity:1;fill-rule:nonzero;stroke:none"
       d="m 238.74048,71.911395 6.55947,0 0,1.490794 -6.55947,0 0,-1.490794 z" /></g><g
     inkscape:groupmode="layer"
     id="layer1"
     inkscape:label="Champ"
     style="display:inline"><path
       transform="matrix(1.25,0,0,-1.25,0,308.75)"
       inkscape:connector-curvature="0"
       id="path78"
       style="fill:none;stroke:#000000;stroke-width:1.36;stroke-linecap:butt;stroke-linejoin:miter;stroke-miterlimit:4;stroke-dasharray:none;stroke-opacity:1"
       d="m 103.863,145.053 c 0,-12.641 -7.429,-10.938 -7.429,-22.121 0,-11.188 7.429,-9.102 7.429,-24.2429" /><path
       transform="matrix(1.25,0,0,-1.25,0,308.75)"
       inkscape:connector-curvature="0"
       id="path80"
       style="fill:none;stroke:#000000;stroke-width:1.36;stroke-linecap:butt;stroke-linejoin:miter;stroke-miterlimit:4;stroke-dasharray:none;stroke-opacity:1"
       d="m 119.422,145.053 c 0,-12.641 -6.824,-10.938 -6.824,-22.121 0,-11.188 6.824,-9.102 6.824,-24.2429" /><path
       transform="matrix(1.25,0,0,-1.25,0,308.75)"
       inkscape:connector-curvature="0"
       id="path82"
       style="fill:none;stroke:#000000;stroke-width:1.36;stroke-linecap:butt;stroke-linejoin:miter;stroke-miterlimit:4;stroke-dasharray:none;stroke-opacity:1"
       d="m 134.875,145.053 c 0,-12.641 -6.316,-10.938 -6.316,-22.121 0,-11.188 6.316,-9.102 6.316,-24.2429" /><path
       transform="matrix(1.25,0,0,-1.25,0,308.75)"
       inkscape:connector-curvature="0"
       id="path84"
       style="fill:none;stroke:#000000;stroke-width:1.36;stroke-linecap:butt;stroke-linejoin:miter;stroke-miterlimit:4;stroke-dasharray:none;stroke-opacity:1"
       d="m 150.734,145.053 c 0,-12.641 -5.004,-10.938 -5.004,-22.121 0,-11.188 5.004,-9.102 5.004,-24.2429" /><path
       transform="matrix(1.25,0,0,-1.25,0,308.75)"
       inkscape:connector-curvature="0"
       id="path86"
       style="fill:none;stroke:#000000;stroke-width:1.36;stroke-linecap:butt;stroke-linejoin:miter;stroke-miterlimit:4;stroke-dasharray:none;stroke-opacity:1"
       d="m 165.586,145.053 c 0,-12.641 -3.996,-10.938 -3.996,-22.121 0,-11.188 3.996,-9.102 3.996,-24.2429" /><path
       transform="matrix(1.25,0,0,-1.25,0,308.75)"
       inkscape:connector-curvature="0"
       id="path88"
       style="fill:none;stroke:#000000;stroke-width:1.36;stroke-linecap:butt;stroke-linejoin:miter;stroke-miterlimit:4;stroke-dasharray:none;stroke-opacity:1"
       d="m 180.332,145.053 c 0,-12.641 -3.086,-10.938 -3.086,-22.121 0,-11.188 3.086,-9.102 3.086,-24.2429" /><path
       transform="matrix(1.25,0,0,-1.25,0,308.75)"
       inkscape:connector-curvature="0"
       id="path90"
       style="fill:none;stroke:#000000;stroke-width:1.36;stroke-linecap:butt;stroke-linejoin:miter;stroke-miterlimit:4;stroke-dasharray:none;stroke-opacity:1"
       d="m 195.586,145.053 c 0,-12.641 -1.973,-10.938 -1.973,-22.121 0,-11.188 1.973,-9.102 1.973,-24.2429" /><path
       transform="matrix(1.25,0,0,-1.25,0,308.75)"
       inkscape:connector-curvature="0"
       id="path92"
       style="fill:none;stroke:#000000;stroke-width:1.36;stroke-linecap:butt;stroke-linejoin:miter;stroke-miterlimit:4;stroke-dasharray:none;stroke-opacity:1"
       d="m 210.941,145.053 c 0,-12.641 -1.066,-10.938 -1.066,-22.121 0,-11.188 1.066,-9.102 1.066,-24.2429" /><path
       transform="matrix(1.25,0,0,-1.25,0,308.75)"
       inkscape:connector-curvature="0"
       id="path94"
       style="fill:none;stroke:#000000;stroke-width:1.36;stroke-linecap:butt;stroke-linejoin:miter;stroke-miterlimit:4;stroke-dasharray:none;stroke-opacity:1"
       d="m 225.992,145.053 c 0,-12.641 -0.66,-10.938 -0.66,-22.121 0,-11.188 0.66,-9.102 0.66,-24.2429" /><path
       transform="matrix(1.25,0,0,-1.25,0,308.75)"
       inkscape:connector-curvature="0"
       id="path96"
       style="fill:none;stroke:#000000;stroke-width:1.36;stroke-linecap:butt;stroke-linejoin:miter;stroke-miterlimit:4;stroke-dasharray:none;stroke-opacity:1"
       d="m 241.246,145.053 0,-46.3639" /><path
       transform="matrix(1.25,0,0,-1.25,0,308.75)"
       inkscape:connector-curvature="0"
       id="path98"
       style="fill:none;stroke:#000000;stroke-width:1.36;stroke-linecap:butt;stroke-linejoin:miter;stroke-miterlimit:4;stroke-dasharray:none;stroke-opacity:1"
       d="m 113.762,144.65 c 0,44.938 -73.289,27.246 -73.289,-22.125 0,-49.3711 73.289,-67.8902 73.289,-23.8359" /><path
       transform="matrix(1.25,0,0,-1.25,0,308.75)"
       inkscape:connector-curvature="0"
       id="path100"
       style="fill:none;stroke:#000000;stroke-width:1.36;stroke-linecap:butt;stroke-linejoin:miter;stroke-miterlimit:4;stroke-dasharray:none;stroke-opacity:1"
       d="m 143.664,144.65 c 0,55.395 -37.633,69.645 -74.6679,59.594 -32.4492,-8.801 -64.91016,-35.312 -64.91016,-81.719 0,-50.5352 36.10196,-78.6172 71.58206,-84.1562 34.285,-5.3481 67.996,10.1171 67.996,60.3203" /><path
       transform="matrix(1.25,0,0,-1.25,0,308.75)"
       inkscape:connector-curvature="0"
       id="path102"
       style="fill:none;stroke:#000000;stroke-width:1.36;stroke-linecap:butt;stroke-linejoin:miter;stroke-miterlimit:4;stroke-dasharray:none;stroke-opacity:1"
       d="m 187.094,144.65 c 0,79.969 -74.672,137.883 -74.672,137.883 m 6.672,-311.0189 c 0,0 68,54.6867 68,127.175" /><path
       transform="matrix(1.25,0,0,-1.25,0,308.75)"
       inkscape:connector-curvature="0"
       id="path156"
       style="fill:none;stroke:#000000;stroke-width:1.36;stroke-linecap:butt;stroke-linejoin:miter;stroke-miterlimit:4;stroke-dasharray:none;stroke-opacity:1"
       d="m 393.477,145.053 c 0,-12.641 7.425,-10.938 7.425,-22.121 0,-11.188 -7.425,-9.102 -7.425,-24.2429" /><path
       transform="matrix(1.25,0,0,-1.25,0,308.75)"
       inkscape:connector-curvature="0"
       id="path158"
       style="fill:none;stroke:#000000;stroke-width:1.36;stroke-linecap:butt;stroke-linejoin:miter;stroke-miterlimit:4;stroke-dasharray:none;stroke-opacity:1"
       d="m 377.918,145.053 c 0,-12.641 6.824,-10.938 6.824,-22.121 0,-11.188 -6.824,-9.102 -6.824,-24.2429" /><path
       transform="matrix(1.25,0,0,-1.25,0,308.75)"
       inkscape:connector-curvature="0"
       id="path160"
       style="fill:none;stroke:#000000;stroke-width:1.36;stroke-linecap:butt;stroke-linejoin:miter;stroke-miterlimit:4;stroke-dasharray:none;stroke-opacity:1"
       d="m 362.465,145.053 c 0,-12.641 6.316,-10.938 6.316,-22.121 0,-11.188 -6.316,-9.102 -6.316,-24.2429" /><path
       transform="matrix(1.25,0,0,-1.25,0,308.75)"
       inkscape:connector-curvature="0"
       id="path162"
       style="fill:none;stroke:#000000;stroke-width:1.36;stroke-linecap:butt;stroke-linejoin:miter;stroke-miterlimit:4;stroke-dasharray:none;stroke-opacity:1"
       d="m 346.605,145.053 c 0,-12.641 5.004,-10.938 5.004,-22.121 0,-11.188 -5.004,-9.102 -5.004,-24.2429" /><path
       transform="matrix(1.25,0,0,-1.25,0,308.75)"
       inkscape:connector-curvature="0"
       id="path164"
       style="fill:none;stroke:#000000;stroke-width:1.36;stroke-linecap:butt;stroke-linejoin:miter;stroke-miterlimit:4;stroke-dasharray:none;stroke-opacity:1"
       d="m 331.754,145.053 c 0,-12.641 3.996,-10.938 3.996,-22.121 0,-11.188 -3.996,-9.102 -3.996,-24.2429" /><path
       transform="matrix(1.25,0,0,-1.25,0,308.75)"
       inkscape:connector-curvature="0"
       id="path166"
       style="fill:none;stroke:#000000;stroke-width:1.36;stroke-linecap:butt;stroke-linejoin:miter;stroke-miterlimit:4;stroke-dasharray:none;stroke-opacity:1"
       d="m 317.008,145.053 c 0,-12.641 3.086,-10.938 3.086,-22.121 0,-11.188 -3.086,-9.102 -3.086,-24.2429" /><path
       transform="matrix(1.25,0,0,-1.25,0,308.75)"
       inkscape:connector-curvature="0"
       id="path168"
       style="fill:none;stroke:#000000;stroke-width:1.36;stroke-linecap:butt;stroke-linejoin:miter;stroke-miterlimit:4;stroke-dasharray:none;stroke-opacity:1"
       d="m 301.754,145.053 c 0,-12.641 1.973,-10.938 1.973,-22.121 0,-11.188 -1.973,-9.102 -1.973,-24.2429" /><path
       transform="matrix(1.25,0,0,-1.25,0,308.75)"
       inkscape:connector-curvature="0"
       id="path170"
       style="fill:none;stroke:#000000;stroke-width:1.36;stroke-linecap:butt;stroke-linejoin:miter;stroke-miterlimit:4;stroke-dasharray:none;stroke-opacity:1"
       d="m 286.398,145.053 c 0,-12.641 1.067,-10.938 1.067,-22.121 0,-11.188 -1.067,-9.102 -1.067,-24.2429" /><path
       transform="matrix(1.25,0,0,-1.25,0,308.75)"
       inkscape:connector-curvature="0"
       id="path172"
       style="fill:none;stroke:#000000;stroke-width:1.36;stroke-linecap:butt;stroke-linejoin:miter;stroke-miterlimit:4;stroke-dasharray:none;stroke-opacity:1"
       d="m 271.348,145.053 c 0,-12.641 0.66,-10.938 0.66,-22.121 0,-11.188 -0.66,-9.102 -0.66,-24.2429" /><path
       transform="matrix(1.25,0,0,-1.25,0,308.75)"
       inkscape:connector-curvature="0"
       id="path174"
       style="fill:none;stroke:#000000;stroke-width:1.36;stroke-linecap:butt;stroke-linejoin:miter;stroke-miterlimit:4;stroke-dasharray:none;stroke-opacity:1"
       d="m 256.094,145.053 0,-46.3639" /><path
       inkscape:connector-curvature="0"
       id="path176"
       style="fill:none;stroke:#000000;stroke-width:1.36;stroke-linecap:butt;stroke-linejoin:miter;stroke-miterlimit:4;stroke-dasharray:none;stroke-opacity:1"
       d="m 383.574,144.65 c 0,44.938 73.293,27.246 73.293,-22.125 0,-49.3711 -73.293,-67.8902 -73.293,-23.8359"
       transform="matrix(1.25,0,0,-1.25,0,308.75)" /><path
       transform="matrix(1.25,0,0,-1.25,0,308.75)"
       inkscape:connector-curvature="0"
       id="path178"
       style="fill:none;stroke:#000000;stroke-width:1.36;stroke-linecap:butt;stroke-linejoin:miter;stroke-miterlimit:4;stroke-dasharray:none;stroke-opacity:1"
       d="m 353.676,144.65 c 0,55.395 37.633,69.645 74.668,59.594 32.449,-8.801 64.906,-35.312 64.906,-81.719 0,-50.5352 -36.098,-78.6172 -71.578,-84.1562 -34.285,-5.3481 -67.996,10.1171 -67.996,60.3203" /><path
       transform="matrix(1.25,0,0,-1.25,0,308.75)"
       inkscape:connector-curvature="0"
       id="path180"
       style="fill:none;stroke:#000000;stroke-width:1.36;stroke-linecap:butt;stroke-linejoin:miter;stroke-miterlimit:4;stroke-dasharray:none;stroke-opacity:1"
       d="m 310.246,144.65 c 0,79.969 74.672,137.883 74.672,137.883 m -6.672,-311.0189 c 0,0 -68,54.6867 -68,127.175" /></g><g
     inkscape:groupmode="layer"
     id="layer2"
     inkscape:label="Arrow"
     style="display:inline"><path
       transform="matrix(1.25,0,0,-1.25,0,308.75)"
       inkscape:connector-curvature="0"
       id="path36"
       style="display:inline;fill:none;stroke:#000000;stroke-width:0.80000001;stroke-linecap:butt;stroke-linejoin:miter;stroke-miterlimit:4;stroke-dasharray:none;stroke-opacity:1"
       d="m 241.219,125.143 -3.199,3.203 3.199,-11.203 3.199,11.203 -3.199,-3.203 z" /><path
       transform="matrix(1.25,0,0,-1.25,0,308.75)"
       inkscape:connector-curvature="0"
       id="path106"
       style="display:inline;fill:none;stroke:#000000;stroke-width:0.80000001;stroke-linecap:butt;stroke-linejoin:miter;stroke-miterlimit:4;stroke-dasharray:none;stroke-opacity:1"
       d="m 400.613,125.143 3.199,3.203 -3.199,-11.203 -3.199,11.203 3.199,-3.203 z" /><path
       transform="matrix(1.25,0,0,-1.25,0,308.75)"
       inkscape:connector-curvature="0"
       id="path114"
       style="display:inline;fill:none;stroke:#000000;stroke-width:0.80000001;stroke-linecap:butt;stroke-linejoin:miter;stroke-miterlimit:4;stroke-dasharray:none;stroke-opacity:1"
       d="m 256.121,125.143 3.199,3.203 -3.199,-11.203 -3.199,11.203 3.199,-3.203 z" /><path
       transform="matrix(1.25,0,0,-1.25,0,308.75)"
       inkscape:connector-curvature="0"
       id="path118"
       style="display:inline;fill:none;stroke:#000000;stroke-width:0.80000001;stroke-linecap:butt;stroke-linejoin:miter;stroke-miterlimit:4;stroke-dasharray:none;stroke-opacity:1"
       d="m 272.082,125.143 3.199,3.203 -3.199,-11.203 -3.199,11.203 3.199,-3.203 z" /><path
       transform="matrix(1.25,0,0,-1.25,0,308.75)"
       inkscape:connector-curvature="0"
       id="path122"
       style="display:inline;fill:none;stroke:#000000;stroke-width:0.80000001;stroke-linecap:butt;stroke-linejoin:miter;stroke-miterlimit:4;stroke-dasharray:none;stroke-opacity:1"
       d="m 287.363,125.143 3.203,3.203 -3.203,-11.203 -3.199,11.203 3.199,-3.203 z" /><path
       transform="matrix(1.25,0,0,-1.25,0,308.75)"
       inkscape:connector-curvature="0"
       id="path126"
       style="display:inline;fill:none;stroke:#000000;stroke-width:0.80000001;stroke-linecap:butt;stroke-linejoin:miter;stroke-miterlimit:4;stroke-dasharray:none;stroke-opacity:1"
       d="m 303.699,125.143 3.199,3.203 -3.199,-11.203 -3.199,11.203 3.199,-3.203 z" /><path
       transform="matrix(1.25,0,0,-1.25,0,308.75)"
       inkscape:connector-curvature="0"
       id="path130"
       style="display:inline;fill:none;stroke:#000000;stroke-width:0.80000001;stroke-linecap:butt;stroke-linejoin:miter;stroke-miterlimit:4;stroke-dasharray:none;stroke-opacity:1"
       d="m 320.062,125.143 3.204,3.203 -3.204,-11.203 -3.199,11.203 3.199,-3.203 z" /><path
       transform="matrix(1.25,0,0,-1.25,0,308.75)"
       inkscape:connector-curvature="0"
       id="path134"
       style="display:inline;fill:none;stroke:#000000;stroke-width:0.80000001;stroke-linecap:butt;stroke-linejoin:miter;stroke-miterlimit:4;stroke-dasharray:none;stroke-opacity:1"
       d="m 335.723,125.143 3.199,3.203 -3.199,-11.203 -3.203,11.203 3.203,-3.203 z" /><path
       transform="matrix(1.25,0,0,-1.25,0,308.75)"
       inkscape:connector-curvature="0"
       id="path138"
       style="display:inline;fill:none;stroke:#000000;stroke-width:0.80000001;stroke-linecap:butt;stroke-linejoin:miter;stroke-miterlimit:4;stroke-dasharray:none;stroke-opacity:1"
       d="m 351.48,125.143 3.2,3.203 -3.2,-11.203 -3.199,11.203 3.199,-3.203 z" /><path
       transform="matrix(1.25,0,0,-1.25,0,308.75)"
       inkscape:connector-curvature="0"
       id="path142"
       style="display:inline;fill:none;stroke:#000000;stroke-width:0.80000001;stroke-linecap:butt;stroke-linejoin:miter;stroke-miterlimit:4;stroke-dasharray:none;stroke-opacity:1"
       d="m 368.957,125.143 3.199,3.203 -3.199,-11.203 -3.203,11.203 3.203,-3.203 z" /><path
       transform="matrix(1.25,0,0,-1.25,0,308.75)"
       inkscape:connector-curvature="0"
       id="path146"
       style="display:inline;fill:none;stroke:#000000;stroke-width:0.80000001;stroke-linecap:butt;stroke-linejoin:miter;stroke-miterlimit:4;stroke-dasharray:none;stroke-opacity:1"
       d="m 384.613,125.143 3.199,3.203 -3.199,-11.203 -3.199,11.203 3.199,-3.203 z" /><path
       inkscape:connector-curvature="0"
       id="path150"
       style="display:inline;fill:none;stroke:#000000;stroke-width:0.80000001;stroke-linecap:butt;stroke-linejoin:miter;stroke-miterlimit:4;stroke-dasharray:none;stroke-opacity:1"
       d="m 456.637,125.143 3.199,3.203 -3.199,-11.203 -3.199,11.203 3.199,-3.203 z"
       transform="matrix(1.25,0,0,-1.25,0,308.75)" /><path
       transform="matrix(1.25,0,0,-1.25,0,308.75)"
       inkscape:connector-curvature="0"
       id="path154"
       style="display:inline;fill:none;stroke:#000000;stroke-width:0.80000001;stroke-linecap:butt;stroke-linejoin:miter;stroke-miterlimit:4;stroke-dasharray:none;stroke-opacity:1"
       d="m 493.203,125.143 3.199,3.203 -3.199,-11.203 -3.199,11.203 3.199,-3.203 z" /><path
       transform="matrix(1.25,0,0,-1.25,0,308.75)"
       inkscape:connector-curvature="0"
       id="path104"
       style="display:inline;fill:#000000;fill-opacity:1;fill-rule:evenodd;stroke:none"
       d="m 400.613,125.142 3.199,3.204 -3.199,-11.204 -3.199,11.204 3.199,-3.204 z" /><path
       transform="matrix(1.25,0,0,-1.25,0,308.75)"
       inkscape:connector-curvature="0"
       id="path112"
       style="display:inline;fill:#000000;fill-opacity:1;fill-rule:evenodd;stroke:none"
       d="m 256.121,125.142 3.199,3.204 -3.199,-11.204 -3.199,11.204 3.199,-3.204 z" /><path
       transform="matrix(1.25,0,0,-1.25,0,308.75)"
       inkscape:connector-curvature="0"
       id="path116"
       style="display:inline;fill:#000000;fill-opacity:1;fill-rule:evenodd;stroke:none"
       d="m 272.082,125.142 3.199,3.204 -3.199,-11.204 -3.199,11.204 3.199,-3.204 z" /><path
       transform="matrix(1.25,0,0,-1.25,0,308.75)"
       inkscape:connector-curvature="0"
       id="path120"
       style="display:inline;fill:#000000;fill-opacity:1;fill-rule:evenodd;stroke:none"
       d="m 287.363,125.142 3.203,3.204 -3.203,-11.204 -3.199,11.204 3.199,-3.204 z" /><path
       transform="matrix(1.25,0,0,-1.25,0,308.75)"
       inkscape:connector-curvature="0"
       id="path124"
       style="display:inline;fill:#000000;fill-opacity:1;fill-rule:evenodd;stroke:none"
       d="m 303.699,125.142 3.199,3.204 -3.199,-11.204 -3.199,11.204 3.199,-3.204 z" /><path
       transform="matrix(1.25,0,0,-1.25,0,308.75)"
       inkscape:connector-curvature="0"
       id="path128"
       style="display:inline;fill:#000000;fill-opacity:1;fill-rule:evenodd;stroke:none"
       d="m 320.062,125.142 3.204,3.204 -3.204,-11.204 -3.199,11.204 3.199,-3.204 z" /><path
       transform="matrix(1.25,0,0,-1.25,0,308.75)"
       inkscape:connector-curvature="0"
       id="path132"
       style="display:inline;fill:#000000;fill-opacity:1;fill-rule:evenodd;stroke:none"
       d="m 335.723,125.142 3.199,3.204 -3.199,-11.204 -3.203,11.204 3.203,-3.204 z" /><path
       transform="matrix(1.25,0,0,-1.25,0,308.75)"
       inkscape:connector-curvature="0"
       id="path136"
       style="display:inline;fill:#000000;fill-opacity:1;fill-rule:evenodd;stroke:none"
       d="m 351.48,125.142 3.2,3.204 -3.2,-11.204 -3.199,11.204 3.199,-3.204 z" /><path
       transform="matrix(1.25,0,0,-1.25,0,308.75)"
       inkscape:connector-curvature="0"
       id="path140"
       style="display:inline;fill:#000000;fill-opacity:1;fill-rule:evenodd;stroke:none"
       d="m 368.957,125.142 3.199,3.204 -3.199,-11.204 -3.203,11.204 3.203,-3.204 z" /><path
       transform="matrix(1.25,0,0,-1.25,0,308.75)"
       inkscape:connector-curvature="0"
       id="path144"
       style="display:inline;fill:#000000;fill-opacity:1;fill-rule:evenodd;stroke:none"
       d="m 384.613,125.142 3.199,3.204 -3.199,-11.204 -3.199,11.204 3.199,-3.204 z" /><path
       transform="matrix(1.25,0,0,-1.25,0,308.75)"
       inkscape:connector-curvature="0"
       id="path28"
       style="display:inline;fill:none;stroke:#000000;stroke-width:0.80000001;stroke-linecap:butt;stroke-linejoin:miter;stroke-miterlimit:4;stroke-dasharray:none;stroke-opacity:1"
       d="m 96.727,125.143 -3.2,3.203 3.2,-11.203 3.1992,11.203 -3.1992,-3.203 z" /><path
       transform="matrix(1.25,0,0,-1.25,0,308.75)"
       inkscape:connector-curvature="0"
       id="path34"
       style="display:inline;fill:#000000;fill-opacity:1;fill-rule:evenodd;stroke:none"
       d="m 241.219,125.142 -3.199,3.204 3.199,-11.204 3.199,11.204 -3.199,-3.204 z" /><path
       transform="matrix(1.25,0,0,-1.25,0,308.75)"
       inkscape:connector-curvature="0"
       id="path40"
       style="display:inline;fill:none;stroke:#000000;stroke-width:0.80000001;stroke-linecap:butt;stroke-linejoin:miter;stroke-miterlimit:4;stroke-dasharray:none;stroke-opacity:1"
       d="m 225.258,125.143 -3.199,3.203 3.199,-11.203 3.199,11.203 -3.199,-3.203 z" /><path
       transform="matrix(1.25,0,0,-1.25,0,308.75)"
       inkscape:connector-curvature="0"
       id="path44"
       style="display:inline;fill:none;stroke:#000000;stroke-width:0.80000001;stroke-linecap:butt;stroke-linejoin:miter;stroke-miterlimit:4;stroke-dasharray:none;stroke-opacity:1"
       d="m 209.973,125.143 -3.2,3.203 3.2,-11.203 3.203,11.203 -3.203,-3.203 z" /><path
       transform="matrix(1.25,0,0,-1.25,0,308.75)"
       inkscape:connector-curvature="0"
       id="path48"
       style="display:inline;fill:none;stroke:#000000;stroke-width:0.80000001;stroke-linecap:butt;stroke-linejoin:miter;stroke-miterlimit:4;stroke-dasharray:none;stroke-opacity:1"
       d="m 193.641,125.143 -3.2,3.203 3.2,-11.203 3.199,11.203 -3.199,-3.203 z" /><path
       transform="matrix(1.25,0,0,-1.25,0,308.75)"
       inkscape:connector-curvature="0"
       id="path52"
       style="display:inline;fill:none;stroke:#000000;stroke-width:0.80000001;stroke-linecap:butt;stroke-linejoin:miter;stroke-miterlimit:4;stroke-dasharray:none;stroke-opacity:1"
       d="m 177.277,125.143 -3.203,3.203 3.203,-11.203 3.2,11.203 -3.2,-3.203 z" /><path
       transform="matrix(1.25,0,0,-1.25,0,308.75)"
       inkscape:connector-curvature="0"
       id="path56"
       style="display:inline;fill:none;stroke:#000000;stroke-width:0.80000001;stroke-linecap:butt;stroke-linejoin:miter;stroke-miterlimit:4;stroke-dasharray:none;stroke-opacity:1"
       d="m 161.617,125.143 -3.199,3.203 3.199,-11.203 3.203,11.203 -3.203,-3.203 z" /><path
       transform="matrix(1.25,0,0,-1.25,0,308.75)"
       inkscape:connector-curvature="0"
       id="path60"
       style="display:inline;fill:none;stroke:#000000;stroke-width:0.80000001;stroke-linecap:butt;stroke-linejoin:miter;stroke-miterlimit:4;stroke-dasharray:none;stroke-opacity:1"
       d="m 145.859,125.143 -3.199,3.203 3.199,-11.203 3.2,11.203 -3.2,-3.203 z" /><path
       transform="matrix(1.25,0,0,-1.25,0,308.75)"
       inkscape:connector-curvature="0"
       id="path64"
       style="display:inline;fill:none;stroke:#000000;stroke-width:0.80000001;stroke-linecap:butt;stroke-linejoin:miter;stroke-miterlimit:4;stroke-dasharray:none;stroke-opacity:1"
       d="m 128.383,125.143 -3.199,3.203 3.199,-11.203 3.203,11.203 -3.203,-3.203 z" /><path
       transform="matrix(1.25,0,0,-1.25,0,308.75)"
       inkscape:connector-curvature="0"
       id="path68"
       style="display:inline;fill:none;stroke:#000000;stroke-width:0.80000001;stroke-linecap:butt;stroke-linejoin:miter;stroke-miterlimit:4;stroke-dasharray:none;stroke-opacity:1"
       d="m 112.727,125.143 -3.2,3.203 3.2,-11.203 3.199,11.203 -3.199,-3.203 z" /><path
       transform="matrix(1.25,0,0,-1.25,0,308.75)"
       inkscape:connector-curvature="0"
       id="path110"
       style="display:inline;fill:none;stroke:#000000;stroke-width:0.80000001;stroke-linecap:butt;stroke-linejoin:miter;stroke-miterlimit:4;stroke-dasharray:none;stroke-opacity:1"
       d="m 256.121,125.143 3.199,3.203 -3.199,-11.203 -3.199,11.203 3.199,-3.203 z" /><path
       transform="matrix(1.25,0,0,-1.25,0,308.75)"
       inkscape:connector-curvature="0"
       id="path26"
       style="display:inline;fill:#000000;fill-opacity:1;fill-rule:evenodd;stroke:none"
       d="m 96.727,125.142 -3.2,3.204 3.2,-11.204 3.1992,11.204 -3.1992,-3.204 z" /><path
       transform="matrix(1.25,0,0,-1.25,0,308.75)"
       inkscape:connector-curvature="0"
       id="path32"
       style="display:inline;fill:none;stroke:#000000;stroke-width:0.80000001;stroke-linecap:butt;stroke-linejoin:miter;stroke-miterlimit:4;stroke-dasharray:none;stroke-opacity:1"
       d="m 241.219,125.143 -3.199,3.203 3.199,-11.203 3.199,11.203 -3.199,-3.203 z" /><path
       transform="matrix(1.25,0,0,-1.25,0,308.75)"
       inkscape:connector-curvature="0"
       id="path38"
       style="display:inline;fill:#000000;fill-opacity:1;fill-rule:evenodd;stroke:none"
       d="m 225.258,125.142 -3.199,3.204 3.199,-11.204 3.199,11.204 -3.199,-3.204 z" /><path
       transform="matrix(1.25,0,0,-1.25,0,308.75)"
       inkscape:connector-curvature="0"
       id="path42"
       style="display:inline;fill:#000000;fill-opacity:1;fill-rule:evenodd;stroke:none"
       d="m 209.973,125.142 -3.2,3.204 3.2,-11.204 3.203,11.204 -3.203,-3.204 z" /><path
       transform="matrix(1.25,0,0,-1.25,0,308.75)"
       inkscape:connector-curvature="0"
       id="path46"
       style="display:inline;fill:#000000;fill-opacity:1;fill-rule:evenodd;stroke:none"
       d="m 193.641,125.142 -3.2,3.204 3.2,-11.204 3.199,11.204 -3.199,-3.204 z" /><path
       transform="matrix(1.25,0,0,-1.25,0,308.75)"
       inkscape:connector-curvature="0"
       id="path50"
       style="display:inline;fill:#000000;fill-opacity:1;fill-rule:evenodd;stroke:none"
       d="m 177.277,125.142 -3.203,3.204 3.203,-11.204 3.2,11.204 -3.2,-3.204 z" /><path
       transform="matrix(1.25,0,0,-1.25,0,308.75)"
       inkscape:connector-curvature="0"
       id="path54"
       style="display:inline;fill:#000000;fill-opacity:1;fill-rule:evenodd;stroke:none"
       d="m 161.617,125.142 -3.199,3.204 3.199,-11.204 3.203,11.204 -3.203,-3.204 z" /><path
       transform="matrix(1.25,0,0,-1.25,0,308.75)"
       inkscape:connector-curvature="0"
       id="path58"
       style="display:inline;fill:#000000;fill-opacity:1;fill-rule:evenodd;stroke:none"
       d="m 145.859,125.142 -3.199,3.204 3.199,-11.204 3.2,11.204 -3.2,-3.204 z" /><path
       transform="matrix(1.25,0,0,-1.25,0,308.75)"
       inkscape:connector-curvature="0"
       id="path62"
       style="display:inline;fill:#000000;fill-opacity:1;fill-rule:evenodd;stroke:none"
       d="m 128.383,125.142 -3.199,3.204 3.199,-11.204 3.203,11.204 -3.203,-3.204 z" /><path
       inkscape:connector-curvature="0"
       id="path66"
       style="display:inline;fill:#000000;fill-opacity:1;fill-rule:evenodd;stroke:none"
       d="m 112.727,125.142 -3.2,3.204 3.2,-11.204 3.199,11.204 -3.199,-3.204 z"
       transform="matrix(1.25,0,0,-1.25,0,308.75)" /><path
       transform="matrix(1.25,0,0,-1.25,0,308.75)"
       inkscape:connector-curvature="0"
       id="path108"
       style="display:inline;fill:#000000;fill-opacity:1;fill-rule:evenodd;stroke:none"
       d="m 256.121,125.142 3.199,3.204 -3.199,-11.204 -3.199,11.204 3.199,-3.204 z" /><path
       transform="matrix(1.25,0,0,-1.25,0,308.75)"
       inkscape:connector-curvature="0"
       id="path30"
       style="display:inline;fill:#000000;fill-opacity:1;fill-rule:evenodd;stroke:none"
       d="m 241.219,125.142 -3.199,3.204 3.199,-11.204 3.199,11.204 -3.199,-3.204 z" /><path
       transform="matrix(1.25,0,0,-1.25,0,308.75)"
       inkscape:connector-curvature="0"
       id="path192"
       style="display:inline;fill:none;stroke:#000000;stroke-width:0.80000001;stroke-linecap:butt;stroke-linejoin:miter;stroke-miterlimit:4;stroke-dasharray:none;stroke-opacity:1"
       d="m 339.313,14.5949 -0.969,-4.4172 -3.348,11.1567 8.735,-7.7074 -4.418,0.9679 z" /><path
       transform="matrix(1.25,0,0,-1.25,0,308.75)"
       inkscape:connector-curvature="0"
       id="path72"
       style="display:inline;fill:none;stroke:#000000;stroke-width:0.80000001;stroke-linecap:butt;stroke-linejoin:miter;stroke-miterlimit:4;stroke-dasharray:none;stroke-opacity:1"
       d="m 40.7031,125.143 -3.1992,3.203 3.1992,-11.203 3.1989,11.203 -3.1989,-3.203 z" /><path
       transform="matrix(1.25,0,0,-1.25,0,308.75)"
       inkscape:connector-curvature="0"
       id="path76"
       style="display:inline;fill:none;stroke:#000000;stroke-width:0.80000001;stroke-linecap:butt;stroke-linejoin:miter;stroke-miterlimit:4;stroke-dasharray:none;stroke-opacity:1"
       d="m 4.13711,125.143 -3.199219,3.203 3.199219,-11.203 3.19883,11.203 -3.19883,-3.203 z" /><path
       transform="matrix(1.25,0,0,-1.25,0,308.75)"
       inkscape:connector-curvature="0"
       id="path148"
       style="display:inline;fill:#000000;fill-opacity:1;fill-rule:evenodd;stroke:none"
       d="m 456.637,125.142 3.199,3.204 -3.199,-11.204 -3.199,11.204 3.199,-3.204 z" /><path
       transform="matrix(1.25,0,0,-1.25,0,308.75)"
       inkscape:connector-curvature="0"
       id="path152"
       style="display:inline;fill:#000000;fill-opacity:1;fill-rule:evenodd;stroke:none"
       d="m 493.203,125.142 3.199,3.204 -3.199,-11.204 -3.199,11.204 3.199,-3.204 z" /><path
       transform="matrix(1.25,0,0,-1.25,0,308.75)"
       inkscape:connector-curvature="0"
       id="path184"
       style="display:inline;fill:none;stroke:#000000;stroke-width:0.80000001;stroke-linecap:butt;stroke-linejoin:miter;stroke-miterlimit:4;stroke-dasharray:none;stroke-opacity:1"
       d="m 158.176,14.5992 1.031,-4.4066 3.179,11.2082 -8.616,-7.8363 4.406,1.0347 z" /><path
       transform="matrix(1.25,0,0,-1.25,0,308.75)"
       inkscape:connector-curvature="0"
       id="path188"
       style="display:inline;fill:none;stroke:#000000;stroke-width:0.80000001;stroke-linecap:butt;stroke-linejoin:miter;stroke-miterlimit:4;stroke-dasharray:none;stroke-opacity:1"
       d="m 337.609,229.975 -4.464,-0.727 9.136,7.223 -3.941,-10.961 -0.731,4.465 z" /><path
       transform="matrix(1.25,0,0,-1.25,0,308.75)"
       inkscape:connector-curvature="0"
       id="path190"
       style="display:inline;fill:#000000;fill-opacity:1;fill-rule:evenodd;stroke:none"
       d="m 339.312,14.5961 -0.968,-4.418 -3.348,11.1559 8.734,-7.707 -4.418,0.9691 z" /><path
       transform="matrix(1.25,0,0,-1.25,0,308.75)"
       inkscape:connector-curvature="0"
       id="path196"
       style="display:inline;fill:none;stroke:#000000;stroke-width:0.80000001;stroke-linecap:butt;stroke-linejoin:miter;stroke-miterlimit:4;stroke-dasharray:none;stroke-opacity:1"
       d="m 159.14,230.369 4.446,-0.844 -8.952,7.453 3.664,-11.055 0.842,4.446 z" /><path
       transform="matrix(1.25,0,0,-1.25,0,308.75)"
       inkscape:connector-curvature="0"
       id="path70"
       style="display:inline;fill:#000000;fill-opacity:1;fill-rule:evenodd;stroke:none"
       d="m 40.7031,125.142 -3.1992,3.204 3.1992,-11.204 3.1989,11.204 -3.1989,-3.204 z" /><path
       transform="matrix(1.25,0,0,-1.25,0,308.75)"
       inkscape:connector-curvature="0"
       id="path74"
       style="display:inline;fill:#000000;fill-opacity:1;fill-rule:evenodd;stroke:none"
       d="m 4.13711,125.142 -3.199219,3.204 3.199219,-11.204 3.19883,11.204 -3.19883,-3.204 z" /><path
       transform="matrix(1.25,0,0,-1.25,0,308.75)"
       inkscape:connector-curvature="0"
       id="path182"
       style="display:inline;fill:#000000;fill-opacity:1;fill-rule:evenodd;stroke:none"
       d="m 158.176,14.5988 1.031,-4.4058 3.18,11.207 -8.617,-7.8359 4.406,1.0347 z" /><path
       transform="matrix(1.25,0,0,-1.25,0,308.75)"
       inkscape:connector-curvature="0"
       id="path186"
       style="display:inline;fill:#000000;fill-opacity:1;fill-rule:evenodd;stroke:none"
       d="m 337.609,229.974 -4.464,-0.726 9.136,7.223 -3.941,-10.961 -0.731,4.464 z" /><path
       transform="matrix(1.25,0,0,-1.25,0,308.75)"
       inkscape:connector-curvature="0"
       id="path194"
       style="display:inline;fill:#000000;fill-opacity:1;fill-rule:evenodd;stroke:none"
       d="m 159.141,230.369 4.445,-0.844 -8.953,7.453 3.664,-11.054 0.844,4.445 z" /></g></svg>